<svg width="18" height="18" viewBox="0 0 18 18" fill="none" xmlns="http://www.w3.org/2000/svg">
<path d="M3.31251 11.6767C4.13881 11.6744 4.93384 11.3761 5.53919 10.8414L11.4531 14.0544C11.2549 14.7906 11.3423 15.57 11.6991 16.2499C12.056 16.9299 12.6585 17.4649 13.3963 17.757C14.1341 18.0492 14.9579 18.0789 15.7169 17.8407C16.4759 17.6025 17.1192 17.1124 17.5292 16.4601C17.9391 15.8077 18.0883 15.0368 17.9493 14.2885C17.8104 13.5401 17.3926 12.8644 16.7725 12.385C16.1523 11.9056 15.3714 11.6546 14.5725 11.6779C13.7736 11.7013 13.0103 11.9974 12.4223 12.5121L6.50846 9.29913C6.57081 9.07457 6.60482 8.84193 6.61049 8.60929L12.4204 5.45201C12.9799 5.93595 13.6973 6.22224 14.4525 6.26286C15.2076 6.30347 15.9544 6.09593 16.5677 5.67505C17.1809 5.25418 17.6233 4.64558 17.8206 3.95135C18.0179 3.25713 17.958 2.51951 17.6511 1.86226C17.3442 1.20501 16.8089 0.668098 16.1351 0.341612C15.4612 0.0151253 14.6897 -0.0810758 13.9501 0.0691474C13.2104 0.219371 12.5476 0.606878 12.0728 1.16666C11.5981 1.72644 11.3402 2.42444 11.3425 3.14356C11.3463 3.40225 11.3832 3.66004 11.4531 3.90975L6.08334 6.8263C5.77194 6.36826 5.34058 5.99512 4.83162 5.74355C4.32266 5.49198 3.75362 5.37063 3.18042 5.39142C2.60721 5.41222 2.04955 5.57444 1.56224 5.86215C1.07492 6.14986 0.674708 6.55317 0.400923 7.03244C0.127139 7.51171 -0.0107999 8.05046 0.000660062 8.59575C0.01212 9.14105 0.172584 9.67412 0.466287 10.1426C0.75999 10.6111 1.17683 10.9989 1.67584 11.2679C2.17486 11.5368 2.73889 11.6777 3.31251 11.6767Z" fill="#222222"/>
</svg>
